<svg xmlns="http://www.w3.org/2000/svg" viewBox="0 0 450 178.45"><defs><style>.cls-1,.cls-3{fill:#3965ac;}.cls-2{fill:#57a5cc;}.cls-3{fill-rule:evenodd;}</style></defs><title>LogoCenopsAsset 2Extenso</title><g id="Layer_2" data-name="Layer 2"><g id="Layer_1-2" data-name="Layer 1"><path class="cls-1" d="M3.77,152.55a5.64,5.64,0,0,1,.34-1.9,5.48,5.48,0,0,1,1-1.71,4.85,4.85,0,0,1,1.63-1.23,4.9,4.9,0,0,1,2.17-.46,4.52,4.52,0,0,1,2.48.66A4.07,4.07,0,0,1,13,149.57l-1.32.88a2.75,2.75,0,0,0-.76-1,2.65,2.65,0,0,0-1-.53,3.72,3.72,0,0,0-1-.15,3,3,0,0,0-1.47.35,3.23,3.23,0,0,0-1.06.88,4.17,4.17,0,0,0-.64,1.24,4.72,4.72,0,0,0-.21,1.38,4.38,4.38,0,0,0,.25,1.48,4.54,4.54,0,0,0,.7,1.26,3.62,3.62,0,0,0,1.1.85,3,3,0,0,0,1.37.32,3.48,3.48,0,0,0,1.07-.18,3.19,3.19,0,0,0,1-.56,2.69,2.69,0,0,0,.74-1l1.4.8a3.3,3.3,0,0,1-1,1.34,5,5,0,0,1-1.55.84,5.37,5.37,0,0,1-1.7.29,4.47,4.47,0,0,1-2-.47,5.49,5.49,0,0,1-1.61-1.25,5.85,5.85,0,0,1-1-1.77A5.57,5.57,0,0,1,3.77,152.55ZM18,158.09a4.24,4.24,0,0,1-1.66-.32,4.07,4.07,0,0,1-1.27-.88,4.22,4.22,0,0,1-.84-1.29,4.27,4.27,0,0,1-.29-1.55,4.11,4.11,0,0,1,.51-2,4,4,0,0,1,1.42-1.48A4,4,0,0,1,18,150a3.78,3.78,0,0,1,2.11.57,3.87,3.87,0,0,1,1.4,1.47,4,4,0,0,1,.49,2c0,.12,0,.23,0,.34s0,.19,0,.26H15.69a2.54,2.54,0,0,0,.38,1.21,2.59,2.59,0,0,0,.87.81,2.3,2.3,0,0,0,1.12.28,2.57,2.57,0,0,0,1.24-.32,1.7,1.7,0,0,0,.81-.87l1.41.4a3,3,0,0,1-.78,1,3.93,3.93,0,0,1-1.21.72A4.47,4.47,0,0,1,18,158.09Zm-2.35-4.61h4.73a2.37,2.37,0,0,0-.39-1.19,2.25,2.25,0,0,0-.85-.8,2.21,2.21,0,0,0-1.14-.3,2.26,2.26,0,0,0-1.14.3,2.29,2.29,0,0,0-.84.8A2.46,2.46,0,0,0,15.65,153.48Zm14.72,4.46H28.73v-4.39a2.8,2.8,0,0,0-.36-1.6,1.17,1.17,0,0,0-1-.51,2.13,2.13,0,0,0-1,.24,2.92,2.92,0,0,0-.84.66,2.39,2.39,0,0,0-.54.94v4.66H23.35v-7.83h1.5v1.57a3.06,3.06,0,0,1,.78-.9,3.72,3.72,0,0,1,1.11-.6A4,4,0,0,1,28,150a2.3,2.3,0,0,1,1.15.26,1.8,1.8,0,0,1,.72.7,2.69,2.69,0,0,1,.36,1,6.66,6.66,0,0,1,.1,1.21Zm6.21-.41a5.58,5.58,0,0,1-.52.23,5.2,5.2,0,0,1-.72.21,3.59,3.59,0,0,1-.81.09,2.42,2.42,0,0,1-.94-.18,1.59,1.59,0,0,1-.71-.57,2,2,0,0,1-.25-1v-4.9h-1v-1.27h1v-2.58h1.65v2.58H36v1.27h-1.7v4.37a.84.84,0,0,0,.25.6.91.91,0,0,0,.58.2,1.84,1.84,0,0,0,.66-.12l.47-.2Zm5.54-6a3.52,3.52,0,0,0-1.7.44,2.32,2.32,0,0,0-1.05,1.18v4.79H37.72v-7.83h1.53v1.75a3.48,3.48,0,0,1,1.06-1.29A2.57,2.57,0,0,1,41.7,150h.24l.18,0Zm4.57,6.56a4.16,4.16,0,0,1-1.66-.32A4,4,0,0,1,43,155.59a4.34,4.34,0,0,1,0-3.12,3.87,3.87,0,0,1,.81-1.28A3.79,3.79,0,0,1,45,150.3a4.07,4.07,0,0,1,1.66-.33,4,4,0,0,1,1.65.33,3.6,3.6,0,0,1,1.27.89,3.74,3.74,0,0,1,.82,1.28,4.34,4.34,0,0,1,0,3.12,3.84,3.84,0,0,1-.82,1.28,3.76,3.76,0,0,1-1.27.9A4.15,4.15,0,0,1,46.69,158.09Zm-2.33-4a2.84,2.84,0,0,0,.31,1.34,2.5,2.5,0,0,0,.84,1,2.2,2.2,0,0,0,2.35,0,2.55,2.55,0,0,0,.85-1A2.92,2.92,0,0,0,49,154a2.86,2.86,0,0,0-.32-1.35,2.42,2.42,0,0,0-.85-.94,2.1,2.1,0,0,0-2.35,0,2.61,2.61,0,0,0-.84,1A2.8,2.8,0,0,0,44.36,154.05Zm11,0a4.56,4.56,0,0,1,.45-2,3.82,3.82,0,0,1,1.26-1.46,3.11,3.11,0,0,1,1.82-.56,2.93,2.93,0,0,1,1.62.47,3.39,3.39,0,0,1,1.14,1.15V147h1.64v9.07a.58.58,0,0,0,.11.4.43.43,0,0,0,.34.14v1.32a4.72,4.72,0,0,1-.71.07,1.23,1.23,0,0,1-.8-.27.86.86,0,0,1-.33-.64v-.58a3.21,3.21,0,0,1-1.21,1.16,3.36,3.36,0,0,1-1.59.41,3.57,3.57,0,0,1-1.5-.32,3.61,3.61,0,0,1-1.18-.88,4.37,4.37,0,0,1-.78-1.3A4.49,4.49,0,0,1,55.38,154Zm6.29,1.09v-2.05a2.2,2.2,0,0,0-.54-.85,2.7,2.7,0,0,0-.82-.61,2,2,0,0,0-.9-.23,2.06,2.06,0,0,0-1,.23,2.47,2.47,0,0,0-.73.6,2.7,2.7,0,0,0-.47.85,3,3,0,0,0-.16,1,2.88,2.88,0,0,0,.18,1,2.78,2.78,0,0,0,.51.84,2.49,2.49,0,0,0,.78.56,2.37,2.37,0,0,0,1,.2,1.92,1.92,0,0,0,.66-.12,2.59,2.59,0,0,0,.64-.33,2,2,0,0,0,.52-.49A1.75,1.75,0,0,0,61.67,155.12Zm7.28,3a4.27,4.27,0,0,1-1.66-.32,4.07,4.07,0,0,1-1.27-.88,3.93,3.93,0,0,1-1.12-2.84,4.11,4.11,0,0,1,.51-2A4,4,0,0,1,69,150a3.8,3.8,0,0,1,2.11.57A3.85,3.85,0,0,1,72.47,152a4,4,0,0,1,.49,2c0,.12,0,.23,0,.34s0,.19,0,.26H66.65a2.53,2.53,0,0,0,.37,1.21,2.59,2.59,0,0,0,.87.81,2.3,2.3,0,0,0,1.12.28,2.61,2.61,0,0,0,1.25-.32,1.68,1.68,0,0,0,.8-.87l1.41.4a3,3,0,0,1-.78,1,3.93,3.93,0,0,1-1.21.72A4.47,4.47,0,0,1,69,158.09Zm-2.35-4.61h4.73a2.37,2.37,0,0,0-.39-1.19,2.25,2.25,0,0,0-.85-.8,2.3,2.3,0,0,0-2.27,0,2.29,2.29,0,0,0-.84.8A2.46,2.46,0,0,0,66.6,153.48Zm13.29-3.06v7.52H78.22V147.31h1.37l6,7.68v-7.66H87.3v10.61H85.83Zm13,7.67a4.29,4.29,0,0,1-1.67-.32,4,4,0,0,1-2.11-2.17,4.26,4.26,0,0,1-.28-1.55,4.11,4.11,0,0,1,.51-2A4,4,0,0,1,92.91,150a3.8,3.8,0,0,1,2.11.57A3.85,3.85,0,0,1,96.41,152a4.05,4.05,0,0,1,.5,2c0,.12,0,.23,0,.34s0,.19,0,.26H90.59a2.54,2.54,0,0,0,.38,1.21,2.47,2.47,0,0,0,.86.81,2.34,2.34,0,0,0,1.13.28,2.57,2.57,0,0,0,1.24-.32,1.7,1.7,0,0,0,.81-.87l1.4.4a3.13,3.13,0,0,1-.77,1,4,4,0,0,1-1.22.72A4.41,4.41,0,0,1,92.9,158.09Zm-2.35-4.61h4.73a2.37,2.37,0,0,0-.39-1.19,2.27,2.27,0,0,0-.86-.8,2.17,2.17,0,0,0-1.13-.3,2.26,2.26,0,0,0-1.14.3,2.29,2.29,0,0,0-.84.8A2.46,2.46,0,0,0,90.55,153.48Zm10.8,4.53a3.31,3.31,0,0,1-1.45-.31,3.67,3.67,0,0,1-1.14-.89,4.18,4.18,0,0,1-.73-1.27,4.61,4.61,0,0,1,0-3.08,4.13,4.13,0,0,1,.75-1.29,3.5,3.5,0,0,1,1.15-.88,3.37,3.37,0,0,1,1.47-.32,3,3,0,0,1,1.65.45,3.87,3.87,0,0,1,1.18,1.17v-1.48h1.45v7.6a3.26,3.26,0,0,1-.55,1.93,3.46,3.46,0,0,1-1.49,1.22,5.14,5.14,0,0,1-2.12.41,4.74,4.74,0,0,1-2.16-.44,4.39,4.39,0,0,1-1.45-1.23l.93-.87a2.9,2.9,0,0,0,1.15,1,3.63,3.63,0,0,0,1.53.33,3,3,0,0,0,1.24-.26,2,2,0,0,0,.93-.76,2.25,2.25,0,0,0,.34-1.29v-1.19a3,3,0,0,1-1.15,1.1A3.23,3.23,0,0,1,101.35,158Zm.54-1.33a2.18,2.18,0,0,0,.72-.12,2.72,2.72,0,0,0,.63-.34,3,3,0,0,0,.5-.5,1.88,1.88,0,0,0,.3-.6v-2.05a2.75,2.75,0,0,0-1.36-1.48,2.12,2.12,0,0,0-.91-.21,2,2,0,0,0-1,.24,2.43,2.43,0,0,0-.71.61,2.87,2.87,0,0,0-.47.86,3,3,0,0,0-.16,1,2.77,2.77,0,0,0,.18,1,3,3,0,0,0,.52.84,2.29,2.29,0,0,0,.78.56A2.39,2.39,0,0,0,101.89,156.68Zm9.29,1.41a4.16,4.16,0,0,1-1.66-.32,4,4,0,0,1-2.08-2.18,4.34,4.34,0,0,1,0-3.12,3.87,3.87,0,0,1,.81-1.28,3.79,3.79,0,0,1,1.27-.89,4.07,4.07,0,0,1,1.66-.33,4,4,0,0,1,1.65.33,3.6,3.6,0,0,1,1.27.89,3.74,3.74,0,0,1,.82,1.28,4.34,4.34,0,0,1,0,3.12,3.84,3.84,0,0,1-.82,1.28,3.76,3.76,0,0,1-1.27.9A4.15,4.15,0,0,1,111.18,158.09Zm-2.33-4a2.84,2.84,0,0,0,.31,1.34,2.5,2.5,0,0,0,.84,1,2.2,2.2,0,0,0,2.35,0,2.55,2.55,0,0,0,.85-1,2.92,2.92,0,0,0,.32-1.35,2.86,2.86,0,0,0-.32-1.35,2.42,2.42,0,0,0-.85-.94,2.1,2.1,0,0,0-2.35,0,2.61,2.61,0,0,0-.84,1A2.8,2.8,0,0,0,108.85,154.05Zm2.88-5.06-1.07-.33.85-1.65h1.57Zm8.49,9.1a4.29,4.29,0,0,1-1.67-.32,4,4,0,0,1-1.27-.9,4,4,0,0,1-.84-1.3,4.26,4.26,0,0,1-.28-1.55,4.2,4.2,0,0,1,.49-2,4,4,0,0,1,1.41-1.46,4.09,4.09,0,0,1,2.16-.56,3.93,3.93,0,0,1,2.08.54,3.23,3.23,0,0,1,1.31,1.41l-1.6.51a1.8,1.8,0,0,0-.76-.76,2.07,2.07,0,0,0-1.07-.29,2.18,2.18,0,0,0-1.19.35,2.28,2.28,0,0,0-.84.92,3.21,3.21,0,0,0,0,2.73,2.61,2.61,0,0,0,.84,1,2.18,2.18,0,0,0,1.2.34,2.55,2.55,0,0,0,.78-.13,2.32,2.32,0,0,0,.67-.39,1.53,1.53,0,0,0,.41-.56l1.61.48a2.91,2.91,0,0,1-.76,1,3.77,3.77,0,0,1-1.18.72A4.27,4.27,0,0,1,120.22,158.09Zm4.81-.15v-7.83h1.64v7.83Zm0-9.12V147h1.64v1.81Zm7.14,9.27a4.16,4.16,0,0,1-1.66-.32,4,4,0,0,1-2.08-2.18,4.49,4.49,0,0,1,0-3.12,3.87,3.87,0,0,1,.81-1.28,3.79,3.79,0,0,1,1.27-.89,4.07,4.07,0,0,1,1.66-.33,4,4,0,0,1,1.65.33,3.6,3.6,0,0,1,1.27.89,3.74,3.74,0,0,1,.82,1.28,4.34,4.34,0,0,1,0,3.12,3.84,3.84,0,0,1-.82,1.28,3.76,3.76,0,0,1-1.27.9A4.15,4.15,0,0,1,132.17,158.09Zm-2.33-4a2.84,2.84,0,0,0,.31,1.34,2.5,2.5,0,0,0,.84,1,2.2,2.2,0,0,0,2.35,0,2.55,2.55,0,0,0,.85-1,2.92,2.92,0,0,0,.32-1.35,2.86,2.86,0,0,0-.32-1.35,2.42,2.42,0,0,0-.85-.94,2.1,2.1,0,0,0-2.35,0,2.61,2.61,0,0,0-.84,1A2.8,2.8,0,0,0,129.84,154.05Zm10.6,4a5.52,5.52,0,0,1-1.87-.32,4,4,0,0,1-1.51-1l.61-1.11a4.67,4.67,0,0,0,1.35.87,3.7,3.7,0,0,0,1.36.27,2.09,2.09,0,0,0,1.12-.26.84.84,0,0,0,.44-.77.68.68,0,0,0-.23-.56,2,2,0,0,0-.66-.31l-1-.3a10.45,10.45,0,0,1-1.41-.52,2.22,2.22,0,0,1-.85-.69,1.77,1.77,0,0,1-.29-1,2.17,2.17,0,0,1,.39-1.3,2.44,2.44,0,0,1,1.08-.82,4.29,4.29,0,0,1,1.62-.29,4.42,4.42,0,0,1,1.57.27,3.25,3.25,0,0,1,1.28.81l-.7,1.09a3.83,3.83,0,0,0-1.08-.7,3,3,0,0,0-1.16-.22,2.61,2.61,0,0,0-.69.09,1.13,1.13,0,0,0-.56.3.82.82,0,0,0-.21.6.71.71,0,0,0,.18.5,1.39,1.39,0,0,0,.54.33l.89.3a16,16,0,0,1,1.55.54,2.47,2.47,0,0,1,1,.67,1.65,1.65,0,0,1,.36,1.13,2.11,2.11,0,0,1-.85,1.78A3.66,3.66,0,0,1,140.44,158.09Zm11.82,0a4.29,4.29,0,0,1-1.67-.32,4.07,4.07,0,0,1-1.27-.88,3.93,3.93,0,0,1-1.12-2.84,4.11,4.11,0,0,1,.51-2,4,4,0,0,1,3.56-2.05,3.8,3.8,0,0,1,2.11.57,3.85,3.85,0,0,1,1.39,1.47,4.05,4.05,0,0,1,.5,2c0,.12,0,.23,0,.34s0,.19,0,.26H150a2.53,2.53,0,0,0,.37,1.21,2.59,2.59,0,0,0,.87.81,2.34,2.34,0,0,0,1.13.28,2.6,2.6,0,0,0,1.24-.32,1.7,1.7,0,0,0,.81-.87l1.4.4a3,3,0,0,1-.78,1,3.93,3.93,0,0,1-1.21.72A4.45,4.45,0,0,1,152.26,158.09Zm-2.35-4.61h4.73a2.47,2.47,0,0,0-.39-1.19,2.27,2.27,0,0,0-.86-.8,2.2,2.2,0,0,0-1.13-.3,2.26,2.26,0,0,0-1.14.3,2.29,2.29,0,0,0-.84.8A2.46,2.46,0,0,0,149.91,153.48Zm16,4.53a4.7,4.7,0,0,1-2.08-.45,5,5,0,0,1-1.6-1.21,6,6,0,0,1-1.05-1.74,5.65,5.65,0,0,1-.36-2,5.34,5.34,0,0,1,.39-2,5.57,5.57,0,0,1,1.08-1.72,5,5,0,0,1,1.62-1.2,4.63,4.63,0,0,1,2-.44,4.56,4.56,0,0,1,2.07.46,4.89,4.89,0,0,1,1.6,1.24,5.68,5.68,0,0,1,1,1.74,5.36,5.36,0,0,1,0,4,5.63,5.63,0,0,1-1.07,1.73,5.09,5.09,0,0,1-1.63,1.18A4.69,4.69,0,0,1,165.93,158Zm-3.38-5.39a4.51,4.51,0,0,0,.24,1.46,4.3,4.3,0,0,0,.67,1.25,3.34,3.34,0,0,0,1.08.86,3.11,3.11,0,0,0,1.41.31,3,3,0,0,0,1.43-.33,3.09,3.09,0,0,0,1.05-.88,4.22,4.22,0,0,0,.66-1.26,4.61,4.61,0,0,0,.22-1.41,4.29,4.29,0,0,0-.23-1.43,3.7,3.7,0,0,0-.68-1.25,3.22,3.22,0,0,0-1.08-.86,2.91,2.91,0,0,0-1.37-.32,3.06,3.06,0,0,0-1.44.33,3.35,3.35,0,0,0-1.06.88,4.32,4.32,0,0,0-.68,1.25A4.76,4.76,0,0,0,162.55,152.62Zm14.38,5.47a3.08,3.08,0,0,1-1.66-.45,3.25,3.25,0,0,1-1.13-1.17v4.65h-1.65v-11h1.45v1.41a3.42,3.42,0,0,1,1.17-1.13,3.11,3.11,0,0,1,1.6-.42,3.31,3.31,0,0,1,1.48.33,3.5,3.5,0,0,1,1.17.89,4.5,4.5,0,0,1,1,2.83,4.66,4.66,0,0,1-.45,2,3.72,3.72,0,0,1-1.23,1.48A3.08,3.08,0,0,1,176.93,158.09Zm-.53-1.41a2,2,0,0,0,.94-.22,2.24,2.24,0,0,0,.73-.6,2.69,2.69,0,0,0,.48-.86,3,3,0,0,0,.17-1,2.88,2.88,0,0,0-.18-1,2.62,2.62,0,0,0-1.31-1.41,2.11,2.11,0,0,0-.95-.21,2,2,0,0,0-.66.12,2.53,2.53,0,0,0-1.17.82,1.72,1.72,0,0,0-.31.6V155a3.29,3.29,0,0,0,.55.87,3,3,0,0,0,.79.62A2,2,0,0,0,176.4,156.68Zm9,1.41a4.2,4.2,0,0,1-1.66-.32,4.08,4.08,0,0,1-1.27-.9,4,4,0,0,1-.81-1.28,4.49,4.49,0,0,1,0-3.12,3.9,3.9,0,0,1,2.08-2.17,4.1,4.1,0,0,1,1.66-.33,4,4,0,0,1,1.65.33,3.6,3.6,0,0,1,1.27.89,3.77,3.77,0,0,1,.83,1.28,4.49,4.49,0,0,1,0,3.12,3.87,3.87,0,0,1-.83,1.28,3.76,3.76,0,0,1-1.27.9A4.15,4.15,0,0,1,185.4,158.09Zm-2.33-4a3,3,0,0,0,.31,1.34,2.59,2.59,0,0,0,.84,1,2.11,2.11,0,0,0,1.18.34,2.08,2.08,0,0,0,1.17-.34,2.58,2.58,0,0,0,.86-1,2.91,2.91,0,0,0,.31-1.35,2.86,2.86,0,0,0-.31-1.35,2.44,2.44,0,0,0-.86-.94,2,2,0,0,0-1.17-.36,2.05,2.05,0,0,0-1.18.36,2.71,2.71,0,0,0-.84,1A2.92,2.92,0,0,0,183.07,154.05Zm12.22-2.52a3.49,3.49,0,0,0-1.7.44,2.32,2.32,0,0,0-1.05,1.18v4.79h-1.65v-7.83h1.53v1.75a3.48,3.48,0,0,1,1.06-1.29,2.54,2.54,0,0,1,1.39-.54h.24l.18,0Zm5.56,6c-.14.07-.32.15-.53.23a5.2,5.2,0,0,1-.72.21,3.5,3.5,0,0,1-.8.09,2.47,2.47,0,0,1-1-.18,1.56,1.56,0,0,1-.7-.57,1.89,1.89,0,0,1-.26-1v-4.9h-1v-1.27h1v-2.58h1.65v2.58h1.71v1.27h-1.71v4.37a.84.84,0,0,0,.26.6.87.87,0,0,0,.58.2,1.84,1.84,0,0,0,.66-.12,5,5,0,0,0,.46-.2Zm1.06-2.63v-4.79h1.65v4.46a2.79,2.79,0,0,0,.37,1.59,1.32,1.32,0,0,0,1.12.52,2.18,2.18,0,0,0,.9-.2,2.32,2.32,0,0,0,.81-.56,3,3,0,0,0,.6-.93v-4.88H209v6a.58.58,0,0,0,.1.4.46.46,0,0,0,.35.14v1.32L209,158h-.32a1.16,1.16,0,0,1-.75-.24,1,1,0,0,1-.34-.64l0-.78a3.53,3.53,0,0,1-1.36,1.3,3.93,3.93,0,0,1-1.84.44,2.21,2.21,0,0,1-1.86-.81A3.82,3.82,0,0,1,201.91,154.9Zm16.22,3h-1.65v-4.39a2.8,2.8,0,0,0-.36-1.6,1.16,1.16,0,0,0-1-.51,2.13,2.13,0,0,0-1,.24,2.92,2.92,0,0,0-.84.66,2.39,2.39,0,0,0-.54.94v4.66h-1.64v-7.83h1.49v1.57a3.06,3.06,0,0,1,.78-.9,3.72,3.72,0,0,1,1.11-.6,4,4,0,0,1,1.3-.21,2.34,2.34,0,0,1,1.16.26,1.84,1.84,0,0,1,.71.7,2.69,2.69,0,0,1,.36,1,6.64,6.64,0,0,1,.11,1.21Zm1.91,0v-7.83h1.64v7.83Zm0-9.12V147h1.64v1.81Zm3.13,5.21a4.56,4.56,0,0,1,.45-2,3.82,3.82,0,0,1,1.26-1.46,3.07,3.07,0,0,1,1.82-.56,2.93,2.93,0,0,1,1.62.47,3.39,3.39,0,0,1,1.14,1.15V147h1.64v9.07a.58.58,0,0,0,.11.4.43.43,0,0,0,.34.14v1.32a4.72,4.72,0,0,1-.72.07,1.2,1.2,0,0,1-.79-.27.86.86,0,0,1-.33-.64v-.58a3.24,3.24,0,0,1-1.22,1.16,3.35,3.35,0,0,1-1.58.41,3.57,3.57,0,0,1-1.5-.32,3.61,3.61,0,0,1-1.18-.88,4.37,4.37,0,0,1-.78-1.3A4.49,4.49,0,0,1,223.17,154Zm6.29,1.09v-2.05a2.2,2.2,0,0,0-.54-.85,2.74,2.74,0,0,0-.83-.61,2,2,0,0,0-.89-.23,2.06,2.06,0,0,0-1,.23,2.51,2.51,0,0,0-.74.6,2.68,2.68,0,0,0-.46.85,3,3,0,0,0-.16,1,2.67,2.67,0,0,0,.18,1,2.75,2.75,0,0,0,.5.84,2.49,2.49,0,0,0,.78.56,2.45,2.45,0,0,0,1,.2,1.91,1.91,0,0,0,.65-.12,2.65,2.65,0,0,0,.65-.33,2,2,0,0,0,.52-.49A1.75,1.75,0,0,0,229.46,155.12Zm3.17.53a2.11,2.11,0,0,1,.41-1.31,2.8,2.8,0,0,1,1.19-.86,4.38,4.38,0,0,1,1.73-.32,7.82,7.82,0,0,1,1.07.08,4.3,4.3,0,0,1,1,.24V153a1.66,1.66,0,0,0-.5-1.28,2,2,0,0,0-1.42-.47,3.22,3.22,0,0,0-1.24.24,7.75,7.75,0,0,0-1.24.64L233,151a6.32,6.32,0,0,1,1.56-.78,5.39,5.39,0,0,1,1.66-.26,3.47,3.47,0,0,1,2.47.84,3,3,0,0,1,.91,2.35v2.92a.65.65,0,0,0,.09.4.46.46,0,0,0,.35.14v1.32l-.41.06h-.3a1.12,1.12,0,0,1-.79-.25,1,1,0,0,1-.31-.6l-.05-.45a3.37,3.37,0,0,1-1.3,1,3.84,3.84,0,0,1-1.6.36,3,3,0,0,1-1.39-.32,2.48,2.48,0,0,1-1-.88A2.29,2.29,0,0,1,232.63,155.65Zm5,.48a1.9,1.9,0,0,0,.28-.39.78.78,0,0,0,.11-.35v-.9a5.19,5.19,0,0,0-.88-.24,5.85,5.85,0,0,0-.92-.09,2.71,2.71,0,0,0-1.47.37,1.11,1.11,0,0,0-.55,1,1.31,1.31,0,0,0,.18.66,1.47,1.47,0,0,0,.54.51,1.82,1.82,0,0,0,.88.19,2.65,2.65,0,0,0,1-.21A2.28,2.28,0,0,0,237.61,156.13Zm3.54-2.1a4.56,4.56,0,0,1,.45-2,3.88,3.88,0,0,1,1.25-1.46,3.12,3.12,0,0,1,1.83-.56,2.93,2.93,0,0,1,1.62.47,3.35,3.35,0,0,1,1.13,1.15V147h1.65v9.07a.58.58,0,0,0,.11.4.43.43,0,0,0,.34.14v1.32a4.72,4.72,0,0,1-.72.07,1.2,1.2,0,0,1-.79-.27.86.86,0,0,1-.33-.64l0-.58a3.14,3.14,0,0,1-1.21,1.16,3.35,3.35,0,0,1-1.58.41,3.57,3.57,0,0,1-1.5-.32,3.61,3.61,0,0,1-1.18-.88,4.37,4.37,0,0,1-.78-1.3A4.49,4.49,0,0,1,241.15,154Zm6.28,1.09v-2.05a2.07,2.07,0,0,0-.53-.85,2.74,2.74,0,0,0-.83-.61,2,2,0,0,0-.9-.23,2.05,2.05,0,0,0-.95.23,2.51,2.51,0,0,0-.74.6,2.68,2.68,0,0,0-.46.85,3,3,0,0,0-.17,1,2.88,2.88,0,0,0,.18,1,2.78,2.78,0,0,0,.51.84,2.49,2.49,0,0,0,.78.56,2.4,2.4,0,0,0,1,.2,1.92,1.92,0,0,0,.66-.12,2.65,2.65,0,0,0,.65-.33,2,2,0,0,0,.52-.49A1.58,1.58,0,0,0,247.43,155.12Zm7.29,3a4.24,4.24,0,0,1-1.66-.32,4.07,4.07,0,0,1-1.27-.88,4.22,4.22,0,0,1-.84-1.29,4.27,4.27,0,0,1-.29-1.55,4.11,4.11,0,0,1,.51-2,4,4,0,0,1,3.56-2.05,3.84,3.84,0,0,1,2.12.57,3.92,3.92,0,0,1,1.39,1.47,4,4,0,0,1,.49,2c0,.12,0,.23,0,.34s0,.19,0,.26h-6.28a2.54,2.54,0,0,0,.38,1.21,2.59,2.59,0,0,0,.87.81,2.3,2.3,0,0,0,1.12.28,2.57,2.57,0,0,0,1.24-.32,1.7,1.7,0,0,0,.81-.87l1.41.4a3,3,0,0,1-.78,1,4,4,0,0,1-1.21.72A4.47,4.47,0,0,1,254.72,158.09Zm-2.35-4.61h4.73a2.37,2.37,0,0,0-.39-1.19,2.25,2.25,0,0,0-.85-.8,2.21,2.21,0,0,0-1.14-.3,2.26,2.26,0,0,0-1.14.3,2.29,2.29,0,0,0-.84.8A2.46,2.46,0,0,0,252.37,153.48Zm10.49,4.61a5.52,5.52,0,0,1-1.87-.32,4,4,0,0,1-1.51-1l.61-1.11a4.67,4.67,0,0,0,1.35.87,3.7,3.7,0,0,0,1.36.27,2.09,2.09,0,0,0,1.12-.26.84.84,0,0,0,.44-.77.68.68,0,0,0-.23-.56,2,2,0,0,0-.66-.31l-1-.3a10.79,10.79,0,0,1-1.4-.52,2.26,2.26,0,0,1-.86-.69,1.77,1.77,0,0,1-.28-1,2.17,2.17,0,0,1,.39-1.3,2.44,2.44,0,0,1,1.08-.82A4.24,4.24,0,0,1,263,150a4.38,4.38,0,0,1,1.57.27,3.36,3.36,0,0,1,1.29.81l-.7,1.09a3.83,3.83,0,0,0-1.08-.7,3,3,0,0,0-1.17-.22,2.61,2.61,0,0,0-.69.09,1.14,1.14,0,0,0-.55.3.78.78,0,0,0-.21.6.71.71,0,0,0,.18.5,1.39,1.39,0,0,0,.54.33l.88.3a15.35,15.35,0,0,1,1.56.54,2.47,2.47,0,0,1,1,.67,1.65,1.65,0,0,1,.36,1.13,2.12,2.12,0,0,1-.86,1.78A3.63,3.63,0,0,1,262.86,158.09ZM128.49,175.41a3.08,3.08,0,0,1-1.66-.45,3.33,3.33,0,0,1-1.13-1.17v4.66h-1.65v-11h1.45v1.41a3.39,3.39,0,0,1,1.17-1.12,3.11,3.11,0,0,1,1.6-.42,3.31,3.31,0,0,1,1.48.33,3.47,3.47,0,0,1,1.17.88,4.5,4.5,0,0,1,1.05,2.83,4.63,4.63,0,0,1-.45,2,3.65,3.65,0,0,1-1.23,1.48A3.08,3.08,0,0,1,128.49,175.41ZM128,174a2,2,0,0,0,.94-.22,2.24,2.24,0,0,0,.73-.6,2.64,2.64,0,0,0,.48-.85,3,3,0,0,0,.17-1,2.88,2.88,0,0,0-.18-1,2.62,2.62,0,0,0-1.31-1.41,2.13,2.13,0,0,0-.95-.2,2,2,0,0,0-.66.11,3.06,3.06,0,0,0-.65.33,2.47,2.47,0,0,0-.52.5,1.72,1.72,0,0,0-.31.6v2.05a3.29,3.29,0,0,0,.55.87,3.15,3.15,0,0,0,.79.61A2,2,0,0,0,128,174Zm4.92-1a2.09,2.09,0,0,1,.42-1.3,2.71,2.71,0,0,1,1.18-.87,4.47,4.47,0,0,1,1.74-.31,7.65,7.65,0,0,1,1.06.07,4.17,4.17,0,0,1,1,.24v-.49a1.68,1.68,0,0,0-.49-1.29,2,2,0,0,0-1.42-.46,3.27,3.27,0,0,0-1.25.23,7.1,7.1,0,0,0-1.24.65l-.55-1.11a6.44,6.44,0,0,1,1.55-.78,5.45,5.45,0,0,1,1.67-.25,3.49,3.49,0,0,1,2.47.84,3,3,0,0,1,.91,2.35v2.92a.7.7,0,0,0,.09.4.46.46,0,0,0,.34.13v1.32l-.4.06-.3,0a1.11,1.11,0,0,1-.79-.26,1,1,0,0,1-.32-.6l0-.45a3.4,3.4,0,0,1-1.31,1,3.8,3.8,0,0,1-1.6.36,3,3,0,0,1-1.39-.31,2.5,2.5,0,0,1-1-.89A2.29,2.29,0,0,1,132.88,173Zm5,.48a2,2,0,0,0,.29-.39.72.72,0,0,0,.1-.34v-.9a4.23,4.23,0,0,0-.88-.24,4.76,4.76,0,0,0-.91-.09,2.71,2.71,0,0,0-1.47.36,1.12,1.12,0,0,0-.55,1,1.34,1.34,0,0,0,.18.66,1.5,1.5,0,0,0,.53.5,1.86,1.86,0,0,0,.89.2,2.6,2.6,0,0,0,1-.21A2.21,2.21,0,0,0,137.86,173.45Zm8.44-4.59a3.44,3.44,0,0,0-1.71.43,2.36,2.36,0,0,0-1.05,1.18v4.79H141.9v-7.83h1.52v1.75a3.47,3.47,0,0,1,1.07-1.28,2.51,2.51,0,0,1,1.39-.54h.42Zm.61,4.11a2.09,2.09,0,0,1,.42-1.3,2.71,2.71,0,0,1,1.18-.87,4.47,4.47,0,0,1,1.74-.31,7.65,7.65,0,0,1,1.06.07,4.17,4.17,0,0,1,1,.24v-.49a1.68,1.68,0,0,0-.49-1.29,2,2,0,0,0-1.42-.46,3.22,3.22,0,0,0-1.24.23,7.17,7.17,0,0,0-1.25.65l-.55-1.11a6.32,6.32,0,0,1,1.56-.78,5.38,5.38,0,0,1,1.66-.25,3.47,3.47,0,0,1,2.47.84,3,3,0,0,1,.91,2.35v2.92a.7.7,0,0,0,.09.4.49.49,0,0,0,.35.13v1.32l-.41.06-.3,0a1.11,1.11,0,0,1-.79-.26,1,1,0,0,1-.32-.6l0-.45a3.37,3.37,0,0,1-1.3,1,3.84,3.84,0,0,1-1.6.36,3,3,0,0,1-1.4-.31,2.47,2.47,0,0,1-1-.89A2.3,2.3,0,0,1,146.91,173Zm5,.48a1.9,1.9,0,0,0,.28-.39.72.72,0,0,0,.1-.34v-.9a4.23,4.23,0,0,0-.88-.24,4.76,4.76,0,0,0-.91-.09,2.71,2.71,0,0,0-1.47.36,1.12,1.12,0,0,0-.55,1,1.34,1.34,0,0,0,.18.66,1.53,1.53,0,0,0,.54.5,1.82,1.82,0,0,0,.88.2,2.6,2.6,0,0,0,1-.21A2.25,2.25,0,0,0,151.9,173.45Zm7.16-.48a2.09,2.09,0,0,1,.42-1.3,2.71,2.71,0,0,1,1.18-.87,4.47,4.47,0,0,1,1.74-.31,7.65,7.65,0,0,1,1.06.07,4.17,4.17,0,0,1,1,.24v-.49a1.68,1.68,0,0,0-.49-1.29,2,2,0,0,0-1.42-.46,3.27,3.27,0,0,0-1.25.23,7.1,7.1,0,0,0-1.24.65l-.55-1.11a6.26,6.26,0,0,1,1.55-.78,5.45,5.45,0,0,1,1.67-.25,3.49,3.49,0,0,1,2.47.84,3,3,0,0,1,.91,2.35v2.92a.7.7,0,0,0,.09.4.46.46,0,0,0,.34.13v1.32l-.4.06-.3,0a1.09,1.09,0,0,1-.79-.26,1,1,0,0,1-.32-.6l0-.45a3.4,3.4,0,0,1-1.31,1,3.84,3.84,0,0,1-1.6.36,3,3,0,0,1-1.39-.31,2.5,2.5,0,0,1-1-.89A2.29,2.29,0,0,1,159.06,173Zm5,.48a2,2,0,0,0,.29-.39.72.72,0,0,0,.1-.34v-.9a4.23,4.23,0,0,0-.88-.24,4.86,4.86,0,0,0-.92-.09,2.7,2.7,0,0,0-1.46.36,1.13,1.13,0,0,0-.56,1,1.45,1.45,0,0,0,.18.66,1.53,1.53,0,0,0,.54.5,1.86,1.86,0,0,0,.89.2,2.6,2.6,0,0,0,1-.21A2.21,2.21,0,0,0,164,173.45Zm7.94,1.81V164.63h4.46a2.91,2.91,0,0,1,1.32.3,3.57,3.57,0,0,1,1.05.8,3.52,3.52,0,0,1,.69,1.1,3.44,3.44,0,0,1,.24,1.26,3.73,3.73,0,0,1-.41,1.69,3.25,3.25,0,0,1-1.12,1.29,2.89,2.89,0,0,1-1.68.49h-2.87v3.7Zm1.68-5.18h2.77a1.41,1.41,0,0,0,.84-.25,1.74,1.74,0,0,0,.55-.72,2.38,2.38,0,0,0,.21-1,2.15,2.15,0,0,0-.24-1,1.76,1.76,0,0,0-.63-.69,1.42,1.42,0,0,0-.82-.25h-2.68Zm10.84,5.33a4.23,4.23,0,0,1-1.66-.31,4,4,0,0,1-1.27-.89,4.18,4.18,0,0,1-.84-1.28,4.28,4.28,0,0,1-.29-1.56,4.07,4.07,0,0,1,.51-2,4,4,0,0,1,3.57-2,3.83,3.83,0,0,1,2.11.57,3.9,3.9,0,0,1,1.39,1.46,4.07,4.07,0,0,1,.49,2c0,.12,0,.24,0,.35s0,.18,0,.25H182.2a2.47,2.47,0,0,0,.37,1.22,2.56,2.56,0,0,0,.87.8,2.31,2.31,0,0,0,1.12.29,2.48,2.48,0,0,0,1.24-.33,1.7,1.7,0,0,0,.81-.87l1.41.41a3.13,3.13,0,0,1-.78,1,3.93,3.93,0,0,1-1.21.72A4.47,4.47,0,0,1,184.5,175.41Zm-2.35-4.61h4.73a2.33,2.33,0,0,0-.39-1.18,2.27,2.27,0,0,0-.85-.81,2.21,2.21,0,0,0-1.14-.3,2.26,2.26,0,0,0-1.14.3,2.32,2.32,0,0,0-.84.81A2.42,2.42,0,0,0,182.15,170.8Zm10.49,4.61a5.52,5.52,0,0,1-1.87-.31,4,4,0,0,1-1.51-1l.61-1.1a4.84,4.84,0,0,0,1.35.86,3.7,3.7,0,0,0,1.36.27,2.19,2.19,0,0,0,1.12-.25.86.86,0,0,0,.43-.78.66.66,0,0,0-.22-.55,2,2,0,0,0-.66-.32l-1-.3a10.79,10.79,0,0,1-1.4-.52,2.26,2.26,0,0,1-.86-.69,1.74,1.74,0,0,1-.28-1,2.15,2.15,0,0,1,.39-1.3,2.46,2.46,0,0,1,1.08-.83,4.25,4.25,0,0,1,1.61-.28,4.48,4.48,0,0,1,1.58.27,3.4,3.4,0,0,1,1.28.81l-.7,1.09a3.43,3.43,0,0,0-1.08-.7,3,3,0,0,0-1.17-.23,2.61,2.61,0,0,0-.69.09,1.14,1.14,0,0,0-.55.3.81.81,0,0,0-.21.6.72.72,0,0,0,.18.51,1.39,1.39,0,0,0,.54.33l.88.3c.61.18,1.13.36,1.56.53a2.39,2.39,0,0,1,1,.68,1.62,1.62,0,0,1,.36,1.12,2.11,2.11,0,0,1-.86,1.78A3.63,3.63,0,0,1,192.64,175.41Zm7.35,0a5.52,5.52,0,0,1-1.87-.31,4.07,4.07,0,0,1-1.51-1l.61-1.1a4.84,4.84,0,0,0,1.35.86,3.7,3.7,0,0,0,1.36.27,2.19,2.19,0,0,0,1.12-.25.87.87,0,0,0,.44-.78.66.66,0,0,0-.23-.55,2,2,0,0,0-.66-.32l-1-.3a10.45,10.45,0,0,1-1.41-.52,2.22,2.22,0,0,1-.85-.69,1.74,1.74,0,0,1-.29-1,2.15,2.15,0,0,1,.39-1.3,2.46,2.46,0,0,1,1.08-.83,4.3,4.3,0,0,1,1.62-.28,4.46,4.46,0,0,1,1.57.27,3.25,3.25,0,0,1,1.28.81l-.7,1.09a3.43,3.43,0,0,0-1.08-.7,3,3,0,0,0-1.16-.23,2.61,2.61,0,0,0-.69.09,1.13,1.13,0,0,0-.56.3.81.81,0,0,0-.21.6.72.72,0,0,0,.18.51,1.39,1.39,0,0,0,.54.33l.89.3c.6.18,1.12.36,1.55.53a2.39,2.39,0,0,1,1,.68,1.62,1.62,0,0,1,.36,1.12,2.12,2.12,0,0,1-.85,1.78A3.66,3.66,0,0,1,200,175.41Zm8.09,0a4.13,4.13,0,0,1-1.66-.31,4,4,0,0,1-1.28-.9,4.13,4.13,0,0,1-.81-1.29,4.46,4.46,0,0,1,0-3.11,3.92,3.92,0,0,1,.81-1.29,3.8,3.8,0,0,1,1.28-.88,4,4,0,0,1,1.66-.33,3.94,3.94,0,0,1,1.64.33,3.62,3.62,0,0,1,1.28.88,3.94,3.94,0,0,1,.82,1.29,4.46,4.46,0,0,1,0,3.11,4.16,4.16,0,0,1-.82,1.29,3.8,3.8,0,0,1-1.28.9A4.1,4.1,0,0,1,208.08,175.41Zm-2.34-4a2.86,2.86,0,0,0,.32,1.35,2.45,2.45,0,0,0,.83.94,2.12,2.12,0,0,0,1.19.34,2,2,0,0,0,1.16-.34,2.58,2.58,0,0,0,.86-1,2.91,2.91,0,0,0,.31-1.35,2.84,2.84,0,0,0-.31-1.34,2.47,2.47,0,0,0-.86-.95,2,2,0,0,0-1.16-.35,2.05,2.05,0,0,0-1.19.35,2.59,2.59,0,0,0-.83,1A2.81,2.81,0,0,0,205.74,171.37ZM213,173a2.09,2.09,0,0,1,.42-1.3,2.74,2.74,0,0,1,1.19-.87,4.38,4.38,0,0,1,1.73-.31,7.55,7.55,0,0,1,1.06.07,4.26,4.26,0,0,1,1,.24v-.49a1.69,1.69,0,0,0-.5-1.29,2,2,0,0,0-1.42-.46,3.22,3.22,0,0,0-1.24.23,7.1,7.1,0,0,0-1.24.65l-.56-1.11a6.32,6.32,0,0,1,1.56-.78,5.38,5.38,0,0,1,1.66-.25,3.47,3.47,0,0,1,2.47.84,3,3,0,0,1,.91,2.35v2.92a.7.7,0,0,0,.09.4.49.49,0,0,0,.35.13v1.32l-.41.06-.3,0a1.12,1.12,0,0,1-.79-.26,1,1,0,0,1-.31-.6l0-.45a3.37,3.37,0,0,1-1.3,1,3.84,3.84,0,0,1-1.6.36,3,3,0,0,1-1.39-.31,2.5,2.5,0,0,1-1-.89A2.3,2.3,0,0,1,213,173Zm5,.48a1.9,1.9,0,0,0,.28-.39.74.74,0,0,0,.11-.34v-.9a4.32,4.32,0,0,0-.89-.24,4.68,4.68,0,0,0-.91-.09,2.71,2.71,0,0,0-1.47.36,1.14,1.14,0,0,0-.55,1,1.34,1.34,0,0,0,.18.66,1.53,1.53,0,0,0,.54.5,1.82,1.82,0,0,0,.88.2,2.56,2.56,0,0,0,1-.21A2.25,2.25,0,0,0,218,173.45Zm14.23-6.32a2.17,2.17,0,0,0-.44-.34,3.8,3.8,0,0,0-.67-.36,5.16,5.16,0,0,0-.84-.27,4.08,4.08,0,0,0-.93-.1,2.56,2.56,0,0,0-1.56.39,1.27,1.27,0,0,0-.5,1.07,1.13,1.13,0,0,0,.28.81,2.21,2.21,0,0,0,.87.48q.59.19,1.47.42a10.53,10.53,0,0,1,1.87.61,2.83,2.83,0,0,1,1.21.93,2.58,2.58,0,0,1,.42,1.54,3,3,0,0,1-.3,1.39,2.59,2.59,0,0,1-.84,1,4,4,0,0,1-1.24.54,6.65,6.65,0,0,1-1.51.17,7.81,7.81,0,0,1-1.59-.17,7.72,7.72,0,0,1-1.5-.48,6.83,6.83,0,0,1-1.3-.79l.76-1.44a3.77,3.77,0,0,0,.56.44,7.46,7.46,0,0,0,.85.43,7.75,7.75,0,0,0,1.06.36,5.29,5.29,0,0,0,1.19.13,2.78,2.78,0,0,0,1.52-.34,1.16,1.16,0,0,0,.54-1,1.09,1.09,0,0,0-.34-.85,2.59,2.59,0,0,0-1-.55c-.43-.15-1-.3-1.57-.45a10.88,10.88,0,0,1-1.75-.62,2.66,2.66,0,0,1-1.06-.87,2.47,2.47,0,0,1-.34-1.36A2.93,2.93,0,0,1,226,166a3.07,3.07,0,0,1,1.38-1.1,5,5,0,0,1,2-.37,5.45,5.45,0,0,1,1.36.16,5.67,5.67,0,0,1,1.2.42,6.54,6.54,0,0,1,1,.62Zm2.56,5.09v-4.79h1.65v4.46a2.79,2.79,0,0,0,.37,1.59,1.3,1.3,0,0,0,1.12.52,2.17,2.17,0,0,0,.9-.19,2.49,2.49,0,0,0,.81-.57,3,3,0,0,0,.6-.93v-4.88h1.64v6a.62.62,0,0,0,.11.4.46.46,0,0,0,.34.13v1.32l-.41.06-.32,0a1.16,1.16,0,0,1-.75-.24,1,1,0,0,1-.34-.65l0-.78A3.63,3.63,0,0,1,239.1,175a4,4,0,0,1-1.84.43,2.21,2.21,0,0,1-1.86-.81A3.82,3.82,0,0,1,234.77,172.22Zm13.6-3.36a3.44,3.44,0,0,0-1.71.43,2.36,2.36,0,0,0-1,1.18v4.79H244v-7.83h1.52v1.75a3.54,3.54,0,0,1,1.06-1.28,2.57,2.57,0,0,1,1.4-.54h.42Zm.58,2.49a4.55,4.55,0,0,1,.45-2,3.78,3.78,0,0,1,1.26-1.47,3.11,3.11,0,0,1,1.83-.55,2.88,2.88,0,0,1,1.61.46,3.48,3.48,0,0,1,1.14,1.15v-4.58h1.65v9.08a.62.62,0,0,0,.1.4.49.49,0,0,0,.35.13v1.32a5,5,0,0,1-.72.08,1.23,1.23,0,0,1-.8-.27.88.88,0,0,1-.33-.65v-.58a3.16,3.16,0,0,1-1.21,1.17,3.35,3.35,0,0,1-1.59.4,3.57,3.57,0,0,1-1.5-.31,3.64,3.64,0,0,1-1.18-.89,4.37,4.37,0,0,1-.78-1.3A4.49,4.49,0,0,1,249,171.35Zm6.29,1.1v-2a2.24,2.24,0,0,0-.54-.86,2.7,2.7,0,0,0-.82-.61,2,2,0,0,0-.9-.22,2.05,2.05,0,0,0-1,.22,2.47,2.47,0,0,0-.73.6,2.81,2.81,0,0,0-.47.85,3.37,3.37,0,0,0-.16,1,2.88,2.88,0,0,0,.18,1,2.78,2.78,0,0,0,.51.84,2.7,2.7,0,0,0,.78.57,2.4,2.4,0,0,0,1,.19,1.92,1.92,0,0,0,.66-.12,2.59,2.59,0,0,0,.64-.33,2.08,2.08,0,0,0,.53-.49A1.68,1.68,0,0,0,255.24,172.45Zm3.17.52a2.09,2.09,0,0,1,.42-1.3,2.71,2.71,0,0,1,1.18-.87,4.47,4.47,0,0,1,1.74-.31,7.65,7.65,0,0,1,1.06.07,4.17,4.17,0,0,1,1,.24v-.49a1.68,1.68,0,0,0-.49-1.29,2,2,0,0,0-1.42-.46,3.27,3.27,0,0,0-1.25.23,7.47,7.47,0,0,0-1.24.65l-.55-1.11a6.44,6.44,0,0,1,1.55-.78,5.45,5.45,0,0,1,1.67-.25,3.49,3.49,0,0,1,2.47.84,3,3,0,0,1,.91,2.35v2.92a.7.7,0,0,0,.09.4.46.46,0,0,0,.34.13v1.32l-.4.06-.3,0a1.11,1.11,0,0,1-.79-.26,1,1,0,0,1-.32-.6l0-.45a3.4,3.4,0,0,1-1.31,1,3.8,3.8,0,0,1-1.6.36,3,3,0,0,1-1.39-.31,2.5,2.5,0,0,1-1-.89A2.29,2.29,0,0,1,258.41,173Zm5,.48a2,2,0,0,0,.29-.39.72.72,0,0,0,.1-.34v-.9a4.23,4.23,0,0,0-.88-.24,4.76,4.76,0,0,0-.91-.09,2.71,2.71,0,0,0-1.47.36,1.12,1.12,0,0,0-.55,1,1.44,1.44,0,0,0,.17.66,1.63,1.63,0,0,0,.54.5,1.86,1.86,0,0,0,.89.2,2.6,2.6,0,0,0,1-.21A2.21,2.21,0,0,0,263.39,173.45Z"/><path class="cls-2" d="M434.34,29.3l-4.8-1.94a7.93,7.93,0,0,1,4.8,7.53V150.15a7.92,7.92,0,0,1-4.8,7.53l4.8-1.94,10.85-4.31a7.94,7.94,0,0,0,4.81-7.54V41.43a7.94,7.94,0,0,0-4.8-7.54l-.42-.17Z"/><path class="cls-1" d="M235.35,126.46a33,33,0,1,1,23.37-9.68A32.83,32.83,0,0,1,235.35,126.46Zm0-53.77a20.72,20.72,0,1,0,20.71,20.72A20.74,20.74,0,0,0,235.35,72.69Z"/><path class="cls-2" d="M281.66,153.78a1.9,1.9,0,0,1,1.91,1.91v10.64a5.25,5.25,0,0,0,10.5,0V155.69a1.92,1.92,0,0,1,3.83,0v10.64a9.08,9.08,0,0,1-18.16,0V155.69A1.91,1.91,0,0,1,281.66,153.78Z"/><path class="cls-2" d="M318.9,164.59a7,7,0,0,0,11.59,5.28,1.91,1.91,0,1,1,2.5,2.89,10.81,10.81,0,1,1,0-16.34,1.91,1.91,0,1,1-2.5,2.89,7,7,0,0,0-11.59,5.28Z"/><path class="cls-2" d="M302.44,175.12a2,2,0,0,1-2.05-2V155.59a1.53,1.53,0,0,1,1.54-1.53h10.8a1.8,1.8,0,1,1,0,3.59h-7.48a.77.77,0,0,0-.77.77v3.89a.78.78,0,0,0,.77.77h5.93a1.66,1.66,0,0,1,0,3.32h-5.93a.77.77,0,0,0-.77.77v5.91A2,2,0,0,1,302.44,175.12Z"/><path class="cls-1" d="M187,126.27a6.17,6.17,0,0,1-6.17-6.17V98.88A26.28,26.28,0,0,0,154.6,72.64H143.44V120.1a6.17,6.17,0,1,1-12.33,0V66.47a6.16,6.16,0,0,1,6.16-6.17H154.6a38.58,38.58,0,0,1,38.59,38.58V120.1A6.16,6.16,0,0,1,187,126.27Z"/><path class="cls-1" d="M96.53,126.41a33.06,33.06,0,1,1,21.64-58A6.17,6.17,0,0,1,120.3,73V93.35a6.17,6.17,0,0,1-6.17,6.17H96.53a6.17,6.17,0,1,1,0-12.33H108V76.07a20.72,20.72,0,1,0,2.13,33,6.17,6.17,0,0,1,8.08,9.32A33.06,33.06,0,0,1,96.53,126.41Z"/><path class="cls-1" d="M33.14,126.41a33.06,33.06,0,1,1,21.68-58,6.16,6.16,0,1,1-8.06,9.33,20.72,20.72,0,1,0,0,31.32,6.17,6.17,0,1,1,8.06,9.34A33.13,33.13,0,0,1,33.14,126.41Z"/><path class="cls-3" d="M336.36,93.35a20.72,20.72,0,1,0-20.72,20.72A20.74,20.74,0,0,0,336.36,93.35Z"/><path class="cls-3" d="M429.54,27.36a11.29,11.29,0,0,0-5.53-.91L395.6,28.78V9.7A9.7,9.7,0,0,0,384.69.08l-63.06,8a9.7,9.7,0,0,0-8.49,9.62V34.49l-31.9,2.65a8.73,8.73,0,0,0-8,8.7v84.94a8.73,8.73,0,0,0,7.57,8.65l1.78.24V93.35a33,33,0,1,1,12.34,25.76v22.21l69.62,9.31a28,28,0,0,1-6.84-18.37,6.17,6.17,0,0,1,12.33,0,15.73,15.73,0,1,0,31.46,0c0-9.87-8.71-13.56-16.31-15.68l-1.25-.36-.77-.23a44.8,44.8,0,0,1-14.11-6.4A25.26,25.26,0,0,1,358,88.4a28.06,28.06,0,0,1,48-19.81,6.17,6.17,0,0,1-8.76,8.69,15.57,15.57,0,0,0-11.15-4.64A15.77,15.77,0,0,0,370.35,88.4c0,7.66,5,12.51,16.23,15.74l1,.3.89.26a45.1,45.1,0,0,1,14.3,6.34,25.18,25.18,0,0,1,11,21.22,28.14,28.14,0,0,1-12.4,23.31l22.42,3,.16,0a11.18,11.18,0,0,0,5.53-.91,7.92,7.92,0,0,0,4.8-7.53V34.89A7.93,7.93,0,0,0,429.54,27.36ZM379.25,30,324.51,33.6V22.48a3.19,3.19,0,0,1,2.85-3.17l48.37-5.07a3.19,3.19,0,0,1,3.52,3.17Z"/></g></g></svg>