<svg xmlns="http://www.w3.org/2000/svg" viewBox="0 0 457.82 178.45"><defs><style>.cls-1{fill:#57a5cc;}.cls-2,.cls-3{fill:#3965ac;}.cls-3{fill-rule:evenodd;}</style></defs><title>LogoCenopsAsset 2Reduzida</title><g id="Layer_2" data-name="Layer 2"><g id="Layer_1-2" data-name="Layer 1"><path class="cls-1" d="M441.89,29.81l-4.89-2a8.06,8.06,0,0,1,4.89,7.66V152.76a8.06,8.06,0,0,1-4.89,7.66l4.89-2,11-4.39a8.08,8.08,0,0,0,4.89-7.67V42.15a8.07,8.07,0,0,0-4.88-7.67l-.43-.17Z"/><path class="cls-2" d="M239.44,128.66a33.63,33.63,0,1,1,23.77-9.85A33.4,33.4,0,0,1,239.44,128.66Zm0-54.71A21.08,21.08,0,1,0,260.52,95,21.1,21.1,0,0,0,239.44,74Z"/><path class="cls-1" d="M286.56,156.45a1.94,1.94,0,0,1,1.94,2v10.82a5.34,5.34,0,0,0,10.68,0V158.4a1.95,1.95,0,1,1,3.9,0v10.82a9.24,9.24,0,0,1-18.47,0V158.4A2,2,0,0,1,286.56,156.45Z"/><path class="cls-1" d="M324.45,167.45a7.13,7.13,0,0,0,11.79,5.38,1.94,1.94,0,1,1,2.54,2.93,11,11,0,1,1,0-16.62,1.94,1.94,0,1,1-2.54,2.93,7.13,7.13,0,0,0-11.79,5.38Z"/><path class="cls-1" d="M307.69,178.17a2.08,2.08,0,0,1-2.08-2.08V158.3a1.57,1.57,0,0,1,1.57-1.57h11a1.83,1.83,0,0,1,0,3.66h-7.61a.78.78,0,0,0-.79.78v4a.78.78,0,0,0,.79.78h6a1.69,1.69,0,0,1,0,3.38h-6a.78.78,0,0,0-.79.78v6A2.08,2.08,0,0,1,307.69,178.17Z"/><path class="cls-2" d="M190.28,128.46a6.28,6.28,0,0,1-6.28-6.27V100.6a26.74,26.74,0,0,0-26.71-26.7H145.93v48.29a6.28,6.28,0,0,1-12.55,0V67.62a6.28,6.28,0,0,1,6.28-6.27h17.63a39.26,39.26,0,0,1,39.26,39.25v21.59A6.27,6.27,0,0,1,190.28,128.46Z"/><path class="cls-2" d="M98.21,128.61a33.63,33.63,0,1,1,22-59.05,6.26,6.26,0,0,1,2.17,4.74V95a6.28,6.28,0,0,1-6.28,6.27H98.21a6.28,6.28,0,1,1,0-12.55h11.63V77.39A21.09,21.09,0,1,0,112,110.92a6.27,6.27,0,1,1,8.22,9.48A33.63,33.63,0,0,1,98.21,128.61Z"/><path class="cls-2" d="M33.72,128.61A33.63,33.63,0,1,1,55.78,69.55a6.28,6.28,0,0,1-8.21,9.5,21.08,21.08,0,1,0,0,31.86,6.28,6.28,0,0,1,8.21,9.5A33.8,33.8,0,0,1,33.72,128.61Z"/><path class="cls-3" d="M342.2,95a21.08,21.08,0,1,0-21.08,21.08A21.09,21.09,0,0,0,342.2,95Z"/><path class="cls-3" d="M437,27.84a11.41,11.41,0,0,0-5.62-.93l-28.9,2.37V9.87A9.87,9.87,0,0,0,391.37.08L327.22,8.19A9.86,9.86,0,0,0,318.59,18V35.09l-32.47,2.69A8.89,8.89,0,0,0,278,46.64v86.41a8.89,8.89,0,0,0,7.7,8.81l1.82.24V95A33.6,33.6,0,1,1,300,121.18v22.6l70.84,9.47a28.46,28.46,0,0,1-7-18.69,6.28,6.28,0,0,1,12.55,0,16,16,0,1,0,32,0c0-10-8.87-13.8-16.59-16-.49-.14-.91-.25-1.28-.37l-.78-.23a46,46,0,0,1-14.36-6.51,25.73,25.73,0,0,1-11.22-21.56A28.55,28.55,0,0,1,413,69.78a6.27,6.27,0,1,1-8.9,8.84,16,16,0,0,0-27.35,11.32c0,7.78,5.09,12.72,16.51,16l1,.31.91.26A45.75,45.75,0,0,1,409.79,113,25.61,25.61,0,0,1,421,134.56a28.58,28.58,0,0,1-12.62,23.71l22.82,3,.16,0a11.29,11.29,0,0,0,5.62-.92,8.06,8.06,0,0,0,4.89-7.66V35.5A8.06,8.06,0,0,0,437,27.84Zm-51.16,2.65-55.69,3.69V22.87a3.23,3.23,0,0,1,2.9-3.22l49.21-5.16a3.24,3.24,0,0,1,3.58,3.23Z"/></g></g></svg>